<?xml version="1.0" standalone="no"?>
<!DOCTYPE svg PUBLIC "-//W3C//DTD SVG 20010904//EN"
 "http://www.w3.org/TR/2001/REC-SVG-20010904/DTD/svg10.dtd">
<svg version="1.0" xmlns="http://www.w3.org/2000/svg"
 width="1008.000000pt" height="1296.000000pt" viewBox="0 0 1008.000000 1296.000000"
 preserveAspectRatio="xMidYMid meet">

<g transform="translate(0.000000,1296.000000) scale(0.100000,-0.100000)"
fill="#000000" stroke="none">
<path d="M3396 12930 c-8 -16 -10 -30 -5 -30 17 0 9 -33 -16 -66 -14 -18 -25
-40 -25 -49 0 -22 24 -29 50 -15 32 17 34 6 5 -29 -29 -34 -48 -41 -38 -14 4
11 3 14 -6 9 -6 -4 -9 -16 -6 -27 4 -11 -4 -33 -20 -56 l-27 -38 7 33 c7 36
-13 47 -22 12 -3 -11 -20 -29 -38 -40 -39 -24 -90 -128 -81 -165 4 -15 1 -25
-8 -28 -18 -7 -26 1 -26 29 0 12 -7 24 -15 28 -10 3 -15 19 -15 42 0 21 -8 46
-17 57 -17 19 -17 20 5 15 25 -7 29 12 12 56 -8 21 -16 26 -42 26 -49 0 -99
-21 -138 -58 -27 -25 -32 -34 -22 -44 7 -7 12 -8 12 -3 0 6 4 3 10 -5 11 -17
-32 -50 -66 -50 -25 0 -35 -19 -28 -47 3 -12 -7 -40 -25 -68 -17 -27 -31 -52
-31 -57 0 -17 -69 -97 -75 -88 -4 6 1 33 10 60 16 48 16 49 -5 70 -12 12 -23
20 -24 18 -13 -15 -36 -111 -36 -147 -1 -25 -4 -64 -9 -86 -9 -48 -2 -127 10
-119 5 3 8 -16 8 -43 -2 -36 -8 -53 -26 -70 -12 -12 -23 -32 -23 -44 0 -13 -9
-32 -20 -44 -24 -25 -18 -52 14 -65 20 -8 20 -9 1 -9 -21 -1 -75 -51 -75 -70
0 -6 -7 -11 -15 -11 -18 0 -52 -18 -82 -44 l-23 -19 0 43 c0 26 -4 40 -9 35
-5 -6 -5 -40 0 -80 8 -66 8 -71 -13 -87 -21 -15 -22 -20 -11 -59 6 -25 8 -50
3 -59 -5 -9 -4 -23 0 -31 7 -11 1 -25 -20 -48 -36 -39 -36 -44 -7 -71 27 -26
29 -51 4 -68 -13 -10 -15 -17 -8 -26 8 -9 3 -18 -19 -34 -17 -13 -27 -28 -24
-36 3 -7 -1 -29 -8 -47 -8 -19 -13 -57 -11 -86 2 -36 -2 -53 -11 -56 -10 -4
-16 -35 -21 -107 -8 -101 -17 -129 -30 -87 -14 46 -26 -35 -20 -138 8 -135 13
-165 30 -165 22 0 10 -278 -13 -303 -23 -26 -23 -159 1 -204 9 -17 19 -46 21
-65 2 -18 7 -46 11 -62 5 -19 3 -31 -6 -38 -10 -7 -11 -11 -2 -14 39 -17 49
-39 51 -119 1 -44 6 -91 12 -105 5 -14 13 -71 19 -127 11 -120 45 -270 73
-330 19 -39 20 -55 14 -195 -7 -185 5 -363 32 -473 6 -22 13 -98 17 -170 6
-128 9 -145 24 -145 8 0 35 110 52 208 13 78 25 113 32 92 20 -63 24 -89 14
-93 -6 -2 -11 -21 -11 -43 -1 -21 -4 -44 -9 -51 -4 -6 -2 -15 4 -19 8 -5 8 -9
-1 -14 -9 -6 -9 -12 0 -29 8 -17 9 -26 0 -36 -9 -10 -8 -19 3 -37 8 -13 18
-41 21 -63 12 -67 16 -75 41 -75 14 0 29 -9 35 -20 7 -14 21 -20 45 -20 18 0
36 -4 39 -8 3 -5 -2 -37 -10 -72 -14 -63 -11 -120 7 -120 5 0 9 -13 9 -30 0
-23 -4 -30 -20 -30 -20 0 -25 -10 -20 -40 1 -8 -10 -24 -24 -35 -35 -28 -46
-117 -16 -142 22 -19 26 -48 9 -58 -6 -4 -8 -14 -5 -22 4 -9 1 -22 -5 -29 -9
-11 -8 -14 5 -14 9 0 15 5 13 11 -1 6 4 14 11 16 6 3 12 -2 12 -9 0 -8 -6 -20
-12 -27 -11 -11 -10 -14 0 -18 10 -4 10 -8 1 -19 -8 -10 -7 -17 5 -29 9 -9 16
-13 16 -8 0 4 7 -3 16 -15 13 -19 13 -25 1 -42 -8 -11 -17 -17 -20 -13 -4 3
-7 1 -7 -5 0 -6 10 -12 23 -14 12 -2 26 -13 32 -25 7 -16 18 -23 37 -23 20 0
31 -8 43 -29 14 -29 22 -32 106 -47 40 -6 57 12 40 44 -7 14 -20 71 -21 92 0
3 -7 27 -15 54 -8 26 -13 51 -11 55 3 4 -5 38 -16 76 -11 39 -24 102 -29 140
-6 39 -14 86 -19 105 -6 19 -10 63 -10 96 0 34 -6 97 -14 140 -27 149 -28 174
-12 208 10 21 16 70 18 148 2 64 6 114 10 112 4 -3 12 5 18 16 9 16 8 20 -5
20 -17 0 -20 31 -5 46 5 5 13 45 17 89 4 54 12 84 23 95 10 10 20 24 23 31 3
8 6 -12 6 -43 1 -32 6 -58 11 -58 6 0 10 -11 10 -25 0 -18 -5 -25 -20 -25 -11
0 -20 -4 -20 -10 0 -12 97 -13 104 -1 8 12 56 1 57 -13 1 -6 0 -21 -1 -33 -1
-21 3 -23 49 -23 31 0 51 4 51 11 0 8 5 8 15 -1 20 -17 19 -40 -5 -65 -12 -13
-16 -25 -11 -34 12 -19 57 -6 64 18 4 18 9 18 46 9 48 -12 60 -5 42 24 -10 17
-10 19 1 16 7 -3 23 -23 36 -46 13 -23 28 -39 33 -36 6 3 8 12 5 19 -2 7 4 21
14 30 23 21 187 33 220 15 12 -6 66 -14 121 -16 81 -4 105 -2 128 12 23 14 36
15 68 7 26 -7 44 -6 55 1 22 13 72 -3 76 -26 2 -10 -8 -21 -27 -29 -44 -20
-38 -33 11 -25 45 7 89 29 128 64 13 12 30 22 36 22 6 0 17 7 24 15 7 8 21 15
32 15 11 0 35 12 53 26 19 14 49 27 68 28 19 2 45 12 57 23 12 12 43 24 68 28
45 6 107 36 114 54 2 5 13 12 26 15 16 5 22 3 22 -7 0 -8 7 -17 15 -21 9 -3
15 -18 15 -36 0 -20 5 -30 15 -30 26 0 17 46 -15 77 -35 33 -38 60 -10 105
l20 33 0 -27 c0 -18 5 -28 15 -28 10 0 15 10 15 34 0 19 3 43 6 53 5 15 4 15
-5 3 -9 -12 -11 -11 -11 8 0 13 4 20 10 17 6 -4 10 5 10 19 0 17 6 26 15 26
23 0 65 52 54 66 -9 11 4 62 19 74 8 6 27 36 44 68 10 19 8 31 -11 70 -19 38
-23 61 -22 124 1 42 -2 85 -8 95 -6 10 -15 37 -21 59 -10 40 -11 41 -51 41
-32 0 -46 6 -59 23 -12 15 -19 19 -24 11 -5 -8 -17 -4 -38 14 -16 14 -35 25
-41 25 -7 0 -17 8 -24 19 -8 13 -19 17 -37 14 -15 -3 -26 -1 -26 6 0 7 -24 11
-65 11 -52 0 -65 3 -65 15 0 21 -30 31 -40 15 -7 -11 -19 -11 -67 -1 -84 19
-83 19 -77 36 4 9 1 27 -6 40 -12 22 -18 24 -79 22 -74 -3 -91 -10 -91 -36 0
-21 -72 -61 -77 -44 -6 17 -51 2 -78 -24 -30 -30 -22 -53 9 -26 38 34 60 49
52 36 -4 -7 -9 -23 -11 -35 -9 -46 -67 -72 -85 -38 -17 31 -54 42 -103 29 -23
-6 -52 -11 -64 -12 -12 -1 -29 -11 -37 -22 -15 -20 -15 -20 -16 3 0 21 -4 23
-29 17 -22 -5 -32 -2 -40 12 -7 12 -13 14 -18 7 -13 -18 -48 -33 -60 -26 -7 4
-11 16 -10 27 3 30 -64 44 -106 23 -43 -22 -104 -31 -112 -18 -4 6 -13 9 -20
6 -8 -3 -16 0 -18 7 -3 9 -8 8 -18 -2 -9 -9 -10 -11 -1 -7 20 12 26 -23 10
-57 l-15 -31 -18 31 c-15 25 -22 30 -36 22 -10 -5 -28 -9 -41 -9 -21 1 -22 2
-5 14 21 16 22 26 2 26 -11 0 -15 11 -15 40 0 34 3 40 21 40 17 0 20 5 17 38
-2 24 -8 37 -18 38 -8 1 -23 2 -32 3 -21 1 -24 26 -5 35 10 5 10 7 0 12 -17 8
-16 51 0 61 8 4 17 24 20 43 3 19 3 29 0 23 -7 -18 -23 -16 -23 2 0 8 5 15 10
15 6 0 10 7 10 16 0 11 8 14 27 12 15 -2 28 2 30 10 3 7 -4 12 -16 12 -17 0
-21 6 -21 34 0 18 -3 55 -7 81 -6 45 -5 48 14 43 19 -5 21 0 26 51 3 38 1 59
-7 66 -33 26 -39 75 -10 75 7 0 16 11 20 25 3 14 10 25 15 25 5 0 9 6 9 14 0
7 7 20 17 27 9 8 22 29 30 47 7 17 17 32 22 32 5 0 14 27 20 60 9 46 16 60 30
60 10 0 21 3 25 8 4 4 20 7 34 7 24 0 27 4 26 33 -1 17 3 32 8 32 6 0 8 7 4
15 -7 18 13 65 27 65 6 0 24 11 41 24 22 16 37 21 51 15 37 -14 48 -11 41 15
-8 32 19 54 77 62 33 5 48 12 52 25 4 11 10 19 14 19 10 0 51 74 51 94 0 9 3
16 8 17 4 0 18 2 32 4 14 1 45 -6 70 -16 25 -10 38 -18 30 -19 -22 -1 30 -29
55 -30 30 0 115 32 115 45 0 14 75 36 115 34 17 0 50 3 75 8 25 5 60 8 79 6
31 -3 33 -1 29 22 -5 24 1 30 30 26 8 -1 21 4 30 13 14 12 31 13 96 6 44 -5
86 -6 94 -1 8 5 33 6 55 3 34 -4 39 -3 34 11 -4 11 -2 14 8 11 7 -3 32 4 56
15 52 26 50 26 48 -1 -4 -48 1 -55 38 -61 41 -7 52 2 84 71 11 23 24 42 28 42
15 0 33 -30 27 -45 -3 -8 -1 -15 4 -15 6 0 10 6 10 14 0 20 48 30 68 14 10 -7
20 -17 24 -23 4 -5 8 0 8 13 0 12 6 22 13 22 17 0 39 -37 26 -45 -5 -4 -7 -16
-3 -28 8 -29 51 -70 59 -57 10 16 65 12 65 -4 0 -27 28 -24 76 6 47 29 48 30
63 10 25 -31 58 -37 66 -12 7 23 33 27 41 5 4 -8 17 -15 30 -15 13 0 24 -4 24
-8 0 -5 26 -8 58 -7 61 1 84 -8 75 -31 -5 -14 15 -19 58 -15 9 1 22 -5 29 -14
7 -8 19 -15 26 -15 8 0 14 -4 14 -8 0 -10 111 -46 138 -45 9 0 23 -5 31 -11 8
-6 47 -10 95 -9 45 1 75 -1 68 -5 -9 -6 -6 -11 10 -20 64 -31 122 -53 169 -63
41 -9 49 -13 35 -21 -9 -5 -14 -14 -10 -19 3 -5 0 -16 -6 -24 -10 -13 -8 -15
14 -15 33 0 33 -13 1 -28 -32 -15 -34 -35 -2 -23 37 14 197 5 232 -13 17 -9
34 -16 38 -16 4 0 19 -12 32 -26 21 -23 32 -26 94 -26 49 -1 71 -5 75 -14 3
-8 14 -14 24 -14 11 0 25 -7 32 -15 7 -8 23 -15 36 -15 13 0 24 -4 24 -10 0
-5 11 -10 24 -10 25 0 82 -26 101 -46 5 -6 31 -23 56 -37 51 -29 70 -53 89
-112 7 -22 16 -44 21 -49 5 -6 9 -22 9 -38 0 -15 6 -31 14 -35 20 -12 47 -69
40 -86 -3 -8 -1 -18 5 -22 6 -3 11 -14 11 -23 0 -10 12 -32 28 -49 40 -46 65
-83 83 -123 9 -19 23 -41 32 -49 10 -7 17 -23 17 -34 0 -22 17 -81 31 -109 5
-10 9 -29 9 -43 0 -15 6 -25 14 -25 15 0 26 -42 26 -100 0 -21 6 -43 14 -49 8
-7 12 -21 9 -31 -3 -11 0 -20 6 -20 6 0 11 -10 11 -22 0 -40 37 -197 49 -211
6 -8 9 -22 5 -31 -3 -9 -1 -16 5 -16 6 0 11 -13 11 -29 0 -17 4 -32 9 -35 4
-3 6 -17 3 -31 -2 -14 0 -25 6 -25 16 0 24 -33 10 -41 -21 -13 -14 -226 8
-261 5 -7 9 -56 9 -108 2 -121 15 -262 27 -276 4 -7 6 -42 4 -80 -3 -50 0 -76
11 -98 9 -17 22 -49 28 -71 11 -36 13 -38 23 -19 6 11 13 45 15 75 2 30 9 68
16 84 7 17 19 44 26 60 7 17 21 50 30 75 43 118 66 147 78 101 3 -14 11 -18
25 -14 18 4 21 13 20 57 0 28 3 80 7 115 6 53 5 62 -6 56 -8 -4 -6 0 3 10 17
18 18 18 37 1 13 -12 21 -14 26 -6 3 6 -3 19 -15 28 -21 17 -21 19 -6 34 9 9
16 27 16 40 0 13 7 32 15 42 8 11 15 30 15 42 0 48 18 31 29 -29 7 -34 21 -99
32 -144 10 -45 19 -98 19 -117 0 -19 4 -38 10 -41 6 -4 8 35 4 110 -4 85 -2
121 7 132 8 8 9 17 3 21 -5 4 -9 50 -10 102 -1 79 2 97 18 114 22 24 20 3 22
261 2 140 7 220 15 240 7 17 12 67 11 115 0 47 2 123 6 169 4 47 2 135 -4 195
-20 199 -30 477 -21 601 11 164 12 182 4 330 -5 77 -13 138 -20 151 -7 11 -17
43 -20 70 -4 27 -16 71 -26 97 -17 43 -18 57 -7 142 13 114 1 194 -36 222 -12
10 -21 23 -19 30 5 14 -14 27 -21 15 -3 -5 -17 -7 -31 -4 -24 4 -25 6 -9 23
15 17 15 21 -4 63 -12 24 -42 61 -67 82 -26 20 -53 51 -62 68 -42 82 -131 205
-195 269 -74 73 -89 105 -90 192 0 72 -4 84 -45 161 -25 46 -65 104 -89 128
-24 25 -44 50 -44 58 0 7 -11 18 -25 24 -22 11 -25 9 -34 -15 -8 -23 -10 -23
-10 -5 -1 12 -10 33 -22 47 -15 20 -18 35 -14 61 6 28 -2 53 -47 145 l-53 111
-457 0 -458 -1 3 -21 c2 -16 -4 -21 -25 -22 -33 -2 -34 1 -11 26 16 17 -9 18
-753 18 -586 0 -773 -3 -782 -12 -9 -9 -12 -9 -12 0 0 18 -1266 17 -1273 0 -4
-10 -6 -10 -6 0 -1 8 -18 12 -50 12 -45 0 -51 -3 -65 -30z m2384 10 c0 -5 -5
-10 -11 -10 -5 0 -7 5 -4 10 3 6 8 10 11 10 2 0 4 -4 4 -10z m-2350 -20 c0 -5
-4 -10 -10 -10 -5 0 -10 5 -10 10 0 6 5 10 10 10 6 0 10 -4 10 -10z m1352 -43
c-17 -20 -92 -59 -92 -48 0 6 6 11 13 11 6 1 26 12 42 25 32 26 55 34 37 12z
m-1359 -57 c-3 -11 -9 -20 -14 -20 -11 0 -11 3 -3 24 9 23 23 20 17 -4z m3851
-2 c3 -7 7 -26 10 -41 6 -25 5 -27 -12 -18 -11 6 -23 7 -28 3 -5 -4 -2 1 5 10
7 9 10 26 6 38 -4 12 -2 20 5 20 6 0 12 -6 14 -12z m-3887 -309 c-35 -74 -74
-156 -87 -182 -32 -69 -34 -53 -4 33 38 110 138 299 151 286 2 -2 -25 -64 -60
-137z m-346 34 c-8 -15 -10 -15 -11 -2 0 17 10 32 18 25 2 -3 -1 -13 -7 -23z
m4172 -76 c25 -40 21 -54 -8 -27 -13 12 -22 27 -19 32 3 5 -2 8 -11 6 -10 -2
-20 3 -22 10 -9 24 42 7 60 -21z m-4173 -42 c-6 -15 -13 -25 -16 -22 -3 3 0
22 8 43 7 20 14 30 16 22 2 -8 -2 -27 -8 -43z m-110 5 c0 -11 -7 -20 -15 -20
-17 0 -18 2 -9 24 9 23 24 20 24 -4z m251 -63 c-8 -8 -11 -7 -11 4 0 20 13 34
18 19 3 -7 -1 -17 -7 -23z m-281 -7 c8 -15 8 -20 -2 -20 -22 0 -41 17 -34 29
11 17 24 13 36 -9z m4368 8 c14 -14 16 -68 3 -68 -8 0 -31 52 -31 71 0 13 14
11 28 -3z m-4483 -58 c3 -5 1 -10 -4 -10 -6 0 -11 5 -11 10 0 6 2 10 4 10 3 0
8 -4 11 -10z m302 -32 c-3 -8 -6 -5 -6 6 -1 11 2 17 5 13 3 -3 4 -12 1 -19z
m-35 -10 c-7 -7 -12 -8 -12 -2 0 14 12 26 19 19 2 -3 -1 -11 -7 -17z m4312
-82 c7 -18 17 -44 21 -57 7 -21 6 -22 -8 -11 -9 7 -19 27 -22 43 -4 16 -11 31
-16 34 -5 4 -9 13 -9 21 0 23 19 6 34 -30z m116 -287 c0 -11 -4 -17 -10 -14
-5 3 -10 13 -10 21 0 8 5 14 10 14 6 0 10 -9 10 -21z m-4641 -436 c1 -17 -3
-35 -9 -38 -6 -4 -10 16 -9 52 0 42 3 52 9 38 5 -11 9 -34 9 -52z m61 41 c0
-8 -4 -12 -10 -9 -5 3 -10 10 -10 16 0 5 5 9 10 9 6 0 10 -7 10 -16z m60 -34
c0 -5 -4 -10 -9 -10 -6 0 -13 5 -16 10 -3 6 1 10 9 10 9 0 16 -4 16 -10z
m-474 -36 c-4 -9 -9 -15 -11 -12 -3 3 -3 13 1 22 4 9 9 15 11 12 3 -3 3 -13
-1 -22z m-126 -358 c0 -6 -7 -2 -15 8 -8 11 -15 25 -15 30 0 6 7 2 15 -8 8
-11 15 -25 15 -30z m2285 -26 c3 -5 0 -10 -7 -10 -7 0 -24 -3 -38 -7 -22 -6
-24 -5 -11 10 15 19 46 23 56 7z m-2245 -10 c0 -5 -2 -10 -4 -10 -3 0 -8 5
-11 10 -3 6 -1 10 4 10 6 0 11 -4 11 -10z m-80 -37 c0 -19 -3 -24 -10 -17 -6
6 -8 18 -4 27 9 24 14 21 14 -10z m3667 -123 c10 0 36 -11 58 -24 30 -19 36
-26 24 -31 -8 -3 -28 -1 -44 5 -20 8 -30 8 -35 0 -6 -10 -60 23 -68 42 -2 5
-11 8 -20 8 -15 1 -14 3 2 15 17 13 22 13 42 0 13 -8 31 -15 41 -15z m-2621
-229 c8 7 14 7 14 1 0 -12 -26 -23 -34 -15 -3 4 -5 13 -5 22 1 12 2 12 6 -2 4
-14 8 -16 19 -6z m3127 -20 c26 -17 27 -19 9 -23 -11 -3 -26 -2 -33 3 -8 5 -9
9 -4 9 6 0 1 7 -9 15 -30 22 3 19 37 -4z m-2448 -1241 c3 -5 -1 -10 -10 -10
-9 0 -13 5 -10 10 3 6 8 10 10 10 2 0 7 -4 10 -10z m-834 -53 c-8 -8 -11 -8
-11 0 0 6 -3 20 -7 30 -7 17 -6 17 11 0 14 -14 16 -21 7 -30z m124 33 c3 -5 1
-10 -6 -10 -7 0 -22 -9 -33 -19 -24 -22 -76 -38 -76 -23 0 10 60 42 79 42 6 0
11 5 11 10 0 6 4 10 9 10 6 0 13 -4 16 -10z m-347 -574 c-12 -7 -25 -11 -27
-9 -8 6 34 31 42 26 5 -3 -2 -11 -15 -17z m-437 -61 l9 20 -3 -20 c-2 -22 -21
-24 -23 -3 0 7 1 6 4 -2 4 -12 7 -11 13 5z m1266 -21 c-3 -3 -12 -4 -19 -1 -8
3 -5 6 6 6 11 1 17 -2 13 -5z m-786 -234 c5 0 9 -4 9 -10 0 -5 -11 -10 -25
-10 -16 0 -25 6 -25 16 0 11 5 14 16 10 9 -3 20 -6 25 -6z m4836 -42 c-3 -7
-5 -2 -5 12 0 14 2 19 5 13 2 -7 2 -19 0 -25z m-4682 -28 c3 -5 1 -10 -5 -10
-6 0 -18 -7 -26 -15 -9 -8 -20 -15 -25 -15 -5 0 -9 7 -9 15 0 8 -5 15 -11 15
-5 0 -8 4 -5 8 7 12 74 14 81 2z m4719 -89 c3 -4 -3 -16 -14 -26 -20 -18 -25
-11 -14 19 7 18 20 21 28 7z m-5184 -313 c0 -18 -2 -20 -9 -8 -6 8 -7 18 -5
22 9 14 14 9 14 -14z"/>
<path d="M3240 12880 c-12 -16 -28 -30 -36 -30 -8 0 -20 -13 -25 -29 -6 -16
-17 -32 -25 -35 -8 -3 -14 -11 -14 -17 0 -7 -8 -21 -17 -31 -11 -12 -13 -22
-7 -26 20 -13 36 -99 29 -151 -4 -30 -3 -51 3 -51 14 0 51 93 58 145 8 61 24
109 43 126 14 13 21 31 20 52 -1 18 2 42 6 55 11 32 -10 28 -35 -8z"/>
<path d="M3307 12872 c-10 -10 -17 -24 -17 -30 0 -22 19 -12 35 18 17 33 7 40
-18 12z"/>
<path d="M3337 12854 c-4 -4 -7 -14 -7 -23 0 -11 3 -12 11 -4 6 6 10 16 7 23
-2 6 -7 8 -11 4z"/>
<path d="M3276 12745 c-15 -23 -15 -25 0 -25 10 0 6 -8 -15 -26 -34 -28 -41
-47 -13 -37 35 12 49 34 49 73 0 22 -1 40 -2 40 -2 0 -10 -11 -19 -25z"/>
<path d="M7421 12669 c8 -16 14 -18 22 -10 9 9 8 14 -3 21 -24 16 -31 11 -19
-11z"/>
<path d="M2371 12372 c-7 -13 -11 -26 -8 -28 8 -8 29 25 25 38 -3 8 -9 4 -17
-10z"/>
<path d="M2620 12296 c0 -8 5 -18 10 -21 6 -3 10 3 10 14 0 12 -4 21 -10 21
-5 0 -10 -6 -10 -14z"/>
<path d="M4470 11000 c0 -5 5 -10 11 -10 5 0 7 5 4 10 -3 6 -8 10 -11 10 -2 0
-4 -4 -4 -10z"/>
<path d="M5270 10910 c0 -5 5 -10 10 -10 6 0 10 5 10 10 0 6 -4 10 -10 10 -5
0 -10 -4 -10 -10z"/>
<path d="M3734 10715 c-10 -8 -34 -15 -51 -15 -45 0 -43 -26 2 -34 30 -6 39
-3 60 20 13 14 22 30 19 35 -7 12 -7 12 -30 -6z"/>
<path d="M5998 10563 c7 -3 16 -2 19 1 4 3 -2 6 -13 5 -11 0 -14 -3 -6 -6z"/>
<path d="M6210 10550 c0 -5 4 -10 9 -10 6 0 13 5 16 10 3 6 -1 10 -9 10 -9 0
-16 -4 -16 -10z"/>
<path d="M2168 10525 c-8 -8 4 -65 13 -65 12 0 12 57 0 64 -4 3 -10 3 -13 1z"/>
<path d="M6413 9535 c-8 -23 -35 -26 -55 -8 -17 15 -23 15 -51 3 -18 -7 -54
-15 -82 -17 -27 -2 -60 -9 -73 -15 -17 -9 -31 -9 -56 0 -43 16 -61 15 -76 -3
-10 -12 -15 -13 -21 -4 -5 8 -19 9 -45 3 -22 -4 -53 -7 -70 -5 -24 2 -40 -5
-63 -28 -30 -29 -48 -32 -77 -10 -6 5 -19 0 -32 -11 -12 -11 -29 -20 -39 -20
-19 0 -103 -99 -103 -122 0 -7 -7 -24 -16 -37 -12 -17 -14 -33 -9 -59 4 -21 8
-51 10 -68 2 -17 12 -50 24 -74 11 -24 21 -58 21 -74 0 -24 3 -27 10 -16 7 11
10 3 10 -30 0 -25 8 -74 16 -110 8 -36 18 -76 21 -90 8 -35 32 -60 58 -60 29
0 39 42 16 64 -14 15 -13 16 10 16 14 0 30 5 37 12 9 9 12 5 12 -19 0 -42 15
-51 85 -51 84 0 82 1 89 -28 5 -19 1 -30 -16 -44 -21 -17 -22 -20 -7 -35 10
-10 30 -18 46 -19 16 -1 41 -9 55 -18 14 -9 49 -20 76 -24 30 -4 53 -12 56
-21 4 -9 17 -14 38 -12 18 2 42 -2 53 -8 12 -7 80 -12 168 -12 126 0 150 2
165 17 10 9 41 28 68 42 27 14 51 28 52 33 2 4 9 7 16 7 20 0 66 24 66 35 0
12 56 45 76 45 22 0 42 40 50 98 6 44 14 59 27 50 1 -1 13 5 27 12 14 8 41 15
60 17 79 5 160 41 160 72 0 8 51 31 69 31 23 1 54 29 81 73 l22 38 -21 23
c-11 12 -21 28 -21 34 0 7 -4 12 -9 12 -12 0 -22 57 -15 86 3 13 12 24 20 24
21 0 17 28 -6 42 -11 7 -20 23 -20 36 0 17 -8 26 -30 33 -16 6 -30 14 -30 18
0 10 -46 31 -66 31 -8 0 -32 13 -52 28 -20 16 -58 37 -84 46 -27 10 -51 23
-55 29 -16 25 -83 47 -125 42 -46 -6 -61 -13 -53 -24 8 -14 -44 0 -56 15 -7 8
-21 11 -40 7 -16 -3 -35 -1 -41 5 -18 14 -71 3 -64 -14 5 -14 -25 -12 -127 11
-48 10 -59 10 -64 0z m237 -621 c0 -8 -4 -13 -9 -9 -6 3 -13 0 -18 -7 -4 -7
-21 -22 -38 -34 -51 -35 -55 -36 -49 -20 3 9 10 16 15 16 5 0 9 4 9 10 0 5 10
20 23 34 25 28 67 34 67 10z m-170 -161 c0 -2 -5 -14 -11 -25 -7 -12 -7 -18
-1 -14 6 3 13 0 16 -6 3 -9 11 -6 25 11 24 27 63 23 41 -4 -20 -24 -4 -17 26
10 17 16 39 25 60 25 18 0 36 5 39 10 3 6 20 10 37 10 l30 0 -7 -47 c-8 -56
-11 -63 -31 -63 -8 0 -14 -5 -14 -11 0 -6 -14 -9 -32 -7 -27 2 -32 0 -30 -15
2 -13 -4 -17 -28 -17 -23 0 -30 -4 -28 -16 2 -13 -7 -18 -43 -21 -82 -7 -288
31 -313 58 -8 8 0 10 29 5 22 -3 65 -8 96 -12 l57 -7 6 44 c3 24 8 55 10 69 1
14 4 28 4 31 2 6 62 -1 62 -8z m-140 -23 c0 -19 -18 -19 -23 -1 -3 14 -1 18 9
14 8 -3 14 -9 14 -13z"/>
<path d="M6413 8653 c1 -24 6 -33 18 -33 9 0 20 7 23 16 9 24 7 29 -6 16 -18
-18 -26 -15 -31 11 -3 13 -4 9 -4 -10z"/>
<path d="M6524 8652 c3 -6 0 -13 -6 -15 -7 -3 -1 -6 15 -6 32 -1 34 4 6 20
-13 6 -19 7 -15 1z"/>
<path d="M6470 8610 c0 -5 7 -10 15 -10 8 0 15 5 15 10 0 6 -7 10 -15 10 -8 0
-15 -4 -15 -10z"/>
<path d="M9940 9536 c0 -9 5 -16 10 -16 6 0 10 4 10 9 0 6 -4 13 -10 16 -5 3
-10 -1 -10 -9z"/>
<path d="M4785 8490 c-3 -5 -1 -10 4 -10 6 0 11 5 11 10 0 6 -2 10 -4 10 -3 0
-8 -4 -11 -10z"/>
<path d="M4407 8343 c-12 -11 -8 -23 7 -23 8 0 16 7 20 15 5 15 -14 21 -27 8z"/>
<path d="M3252 8191 c-10 -6 -9 -10 7 -14 14 -3 21 0 21 9 0 16 -9 18 -28 5z"/>
<path d="M3310 8170 c0 -5 12 -10 26 -10 14 0 23 4 19 10 -3 6 -15 10 -26 10
-10 0 -19 -4 -19 -10z"/>
<path d="M4596 7895 c-9 -25 -8 -32 10 -50 16 -15 14 -16 -18 -10 -23 4 -38 3
-43 -5 -4 -6 -15 -8 -26 -5 -12 4 -21 1 -25 -9 -3 -9 -15 -16 -25 -16 -13 0
-27 -18 -45 -56 -15 -31 -34 -59 -44 -61 -10 -3 -24 -26 -34 -58 -13 -42 -24
-58 -51 -74 -19 -11 -35 -27 -35 -35 0 -8 -8 -23 -19 -33 -10 -10 -27 -34 -37
-53 -24 -45 -74 -100 -90 -100 -7 0 -16 -9 -19 -20 -8 -26 -25 -17 -18 10 3
11 0 20 -6 20 -6 0 -11 -8 -11 -18 0 -10 -5 -23 -12 -30 -9 -9 -9 -12 1 -12 7
0 9 -5 6 -10 -4 -6 -10 -8 -14 -5 -5 2 -13 -7 -19 -20 -7 -15 -20 -25 -32 -25
-11 0 -20 -6 -20 -13 0 -22 -34 -47 -64 -47 -22 0 -28 -6 -33 -30 -5 -27 -28
-50 -48 -50 -3 0 -21 16 -39 36 -23 25 -39 35 -50 31 -22 -9 -20 -24 3 -32 10
-3 28 -14 40 -24 17 -15 20 -24 12 -43 -5 -13 -17 -30 -26 -38 -15 -13 -19
-12 -36 9 -11 13 -23 19 -30 15 -8 -5 -9 -3 -4 6 6 10 4 12 -9 7 -10 -4 -23
-7 -29 -7 -7 0 -21 -18 -31 -40 -17 -35 -22 -39 -45 -33 -47 11 -57 19 -34 31
15 9 20 21 20 52 0 45 -6 49 -32 20 -23 -25 -46 -25 -68 0 -9 11 -23 17 -31
14 -8 -3 -19 3 -26 15 -6 12 -17 21 -24 21 -11 0 -13 10 -9 40 5 38 4 40 -21
40 -14 0 -26 -4 -26 -10 0 -5 5 -9 12 -7 6 1 14 -6 16 -15 2 -12 -3 -18 -15
-18 -24 -1 -63 -34 -63 -54 0 -12 -10 -16 -40 -16 -33 0 -40 -3 -40 -20 0 -11
4 -20 9 -20 5 0 12 -36 16 -80 4 -44 11 -80 16 -80 5 0 9 -15 9 -32 0 -39 27
-142 30 -113 1 16 4 14 12 -8 6 -16 6 -32 2 -37 -15 -13 -59 -20 -74 -10 -12
8 -12 11 3 28 22 24 22 35 -5 110 -22 63 -38 67 -38 10 0 -20 -5 -28 -17 -29
-12 -1 -9 -4 7 -8 14 -4 28 -3 32 3 4 6 10 8 13 4 3 -3 -8 -20 -25 -37 -35
-34 -39 -78 -7 -73 12 2 17 -4 17 -18 0 -16 4 -20 19 -15 11 3 22 1 26 -5 3
-5 0 -10 -8 -10 -10 0 -16 -13 -19 -37 -5 -43 0 -73 13 -73 5 0 9 8 9 18 0 9
5 24 10 32 9 13 12 13 24 -3 16 -21 10 -57 -10 -57 -34 0 -40 -100 -8 -125 8
-6 16 -43 20 -90 3 -44 10 -81 15 -83 5 -2 9 -9 9 -15 0 -7 14 -25 30 -40 17
-16 30 -23 30 -16 0 7 2 10 4 8 2 -2 1 -23 -4 -47 -6 -34 -4 -47 11 -66 11
-13 19 -30 19 -37 0 -7 6 -20 14 -28 7 -9 16 -35 19 -59 4 -33 1 -44 -11 -51
-15 -9 -15 -13 -3 -32 15 -26 8 -34 -64 -71 -22 -12 -58 -36 -80 -55 -21 -18
-56 -38 -76 -44 -20 -7 -51 -24 -69 -39 -30 -25 -209 -130 -223 -130 -3 0 -48
-20 -99 -44 -91 -43 -139 -81 -162 -128 -15 -30 -74 -37 -254 -30 -137 5 -270
-10 -373 -43 -26 -8 -53 -15 -61 -15 -8 0 -32 -15 -54 -34 -22 -19 -55 -40
-74 -48 -44 -19 -260 -225 -260 -248 0 -10 -9 -29 -20 -43 -11 -14 -20 -32
-20 -40 0 -9 -4 -18 -9 -21 -4 -3 -14 -34 -21 -68 -11 -59 -32 -98 -52 -98 -5
0 -18 -8 -29 -19 -20 -18 -95 -31 -184 -31 -26 0 -51 -7 -66 -19 -13 -10 -40
-22 -59 -26 -19 -4 -50 -18 -67 -32 -27 -19 -33 -31 -33 -61 0 -20 -9 -66 -20
-102 -10 -36 -22 -82 -25 -103 -7 -42 -48 -91 -94 -111 -29 -12 -46 -26 -125
-103 -29 -29 -61 -53 -70 -53 -10 0 -20 -9 -23 -20 -3 -10 -15 -22 -27 -26
-11 -4 -31 -17 -43 -30 -12 -13 -31 -24 -41 -24 -10 0 -27 -9 -36 -19 -10 -11
-30 -22 -44 -26 -24 -6 -182 -159 -182 -177 0 -3 -18 -24 -40 -46 -22 -21 -40
-44 -40 -50 0 -15 -88 -122 -131 -160 -20 -18 -41 -48 -47 -70 -9 -29 -12
-405 -12 -1473 l1 -1434 101 -55 c56 -30 126 -71 157 -91 150 -97 180 -117
236 -158 33 -25 79 -62 102 -83 l43 -38 679 0 680 0 50 43 c27 23 57 58 66 77
9 19 19 41 24 49 4 8 35 25 69 37 34 12 84 38 112 58 74 53 86 49 94 -26 7
-74 27 -134 62 -195 l26 -43 3789 0 3789 0 0 3285 0 3285 -35 0 c-19 0 -61 -9
-92 -20 -96 -32 -193 -48 -243 -40 -25 4 -86 28 -136 53 -50 25 -103 49 -117
52 -20 5 -35 24 -61 77 -20 38 -43 76 -51 84 -8 8 -19 22 -24 31 -15 27 -154
24 -206 -4 -22 -13 -65 -32 -95 -44 -30 -11 -77 -29 -104 -39 -26 -11 -53 -26
-60 -34 -6 -8 -41 -22 -79 -30 -61 -14 -71 -14 -110 1 -23 9 -55 28 -70 42
-27 25 -33 26 -165 28 -138 1 -213 17 -292 59 -14 7 -44 22 -66 33 -23 11 -45
24 -48 29 -3 6 -23 16 -44 23 -20 6 -63 29 -94 50 -31 22 -61 39 -66 39 -5 0
-15 7 -22 15 -26 32 -29 25 -70 -170 -32 -155 -79 -311 -80 -267 0 7 -4 10
-10 7 -5 -3 -10 -1 -10 4 0 6 -4 11 -10 11 -6 0 -6 -9 0 -26 13 -34 13 -37 -5
-30 -10 3 -15 -1 -15 -14 0 -10 -4 -22 -10 -25 -5 -3 -10 -16 -10 -28 0 -12
-9 -33 -20 -47 -11 -14 -20 -33 -20 -43 0 -10 -11 -30 -25 -45 -14 -15 -25
-34 -25 -44 0 -9 -7 -23 -15 -32 -8 -8 -15 -20 -15 -27 0 -26 -25 -79 -37 -79
-7 0 -13 -7 -13 -15 0 -20 -40 -64 -54 -60 -15 6 -78 -81 -74 -102 2 -9 -10
-31 -27 -48 -16 -18 -35 -39 -42 -46 -6 -8 -30 -25 -52 -39 -47 -28 -56 -63
-18 -74 20 -6 21 -7 4 -17 -9 -5 -22 -7 -28 -3 -13 7 -59 -34 -59 -53 0 -32
-65 -114 -85 -107 -7 3 -15 -4 -18 -15 -3 -12 0 -21 5 -21 6 0 3 -9 -7 -20
-10 -11 -26 -20 -35 -20 -10 0 -23 -6 -29 -14 -9 -11 -21 -11 -57 -4 -36 8
-48 7 -55 -3 -10 -17 -1 -32 17 -25 8 3 14 1 14 -4 0 -6 12 -10 27 -10 25 0
26 -1 11 -16 -14 -14 -22 -15 -49 -5 -18 6 -48 8 -66 5 -29 -5 -33 -4 -33 15
0 11 5 21 10 21 6 0 10 7 10 15 0 8 -4 15 -8 15 -38 0 -65 -102 -34 -127 15
-12 14 -13 -10 -9 -19 3 -29 0 -33 -12 -6 -19 -62 -82 -73 -82 -4 0 -15 -14
-24 -30 -9 -17 -24 -30 -33 -30 -8 0 -15 -4 -15 -10 0 -19 -42 -53 -69 -55
-14 -1 -34 -6 -44 -10 -11 -4 -23 -3 -30 4 -20 20 -51 11 -73 -22 -13 -21 -27
-31 -38 -29 -14 3 -17 -1 -12 -13 4 -11 2 -15 -6 -13 -7 3 -15 15 -18 29 -5
21 -7 22 -13 5 -4 -10 -13 -16 -22 -12 -8 3 -17 1 -20 -4 -4 -6 -1 -10 4 -10
6 0 11 -4 11 -9 0 -5 -21 -12 -47 -16 -55 -8 -74 -20 -66 -41 3 -9 -2 -14 -16
-14 -12 0 -21 -4 -21 -8 0 -15 -90 -33 -110 -22 -16 8 -26 6 -49 -11 -23 -17
-36 -20 -58 -14 -15 5 -38 7 -50 6 -15 -2 -23 3 -23 13 0 20 -20 20 -65 2 -31
-13 -37 -13 -50 0 -25 25 -18 36 18 29 25 -6 29 -4 21 5 -7 7 -35 13 -62 14
-32 1 -57 8 -70 19 -23 21 -85 17 -112 -8 -21 -19 -88 -11 -97 11 -7 19 -23
18 -23 -1 0 -11 -7 -10 -35 6 -19 11 -40 17 -46 13 -7 -4 -18 1 -26 11 -13 18
-13 18 -27 0 -12 -17 -15 -18 -30 -3 -14 15 -13 17 9 32 13 9 29 16 35 16 5 0
10 4 10 9 0 5 3 16 6 24 5 15 -42 29 -96 27 -76 -2 -105 1 -109 11 -1 5 -14
14 -28 20 -16 6 -23 15 -21 27 5 28 -21 52 -54 52 -26 0 -28 -2 -18 -20 11
-20 6 -40 -10 -40 -4 0 -13 14 -19 30 -5 17 -17 30 -26 30 -12 0 -14 -8 -10
-42 12 -89 16 -101 33 -114 14 -11 15 -15 3 -26 -11 -11 -17 -8 -35 17 -36 50
-94 105 -112 105 -10 0 -14 5 -11 14 3 8 -1 22 -8 33 -14 17 -14 17 -15 -1 0
-17 -5 -15 -34 13 -33 32 -34 33 -15 52 26 26 25 69 -1 69 -13 0 -22 9 -26 25
-3 14 -19 33 -34 42 -16 9 -31 26 -34 38 -9 34 -46 75 -68 75 -14 0 -18 -5
-15 -15 4 -8 2 -17 -3 -20 -6 -4 -10 5 -10 19 0 33 -18 43 -35 20 -7 -11 -9
-20 -4 -22 13 -5 11 -39 -2 -48 -14 -9 -30 16 -25 39 3 11 -2 17 -15 17 -15 0
-17 5 -13 29 7 31 -12 53 -26 30 -7 -10 -12 -10 -26 2 -9 8 -19 13 -21 12 -12
-9 -33 0 -38 16 -3 11 -15 23 -26 26 -22 7 -53 70 -50 100 5 36 41 63 41 31 0
-8 9 -24 19 -37 l19 -24 12 30 c9 22 9 44 1 84 -6 30 -13 56 -15 58 -2 2 -29
7 -60 10 -36 4 -56 10 -56 19 0 7 -9 16 -20 19 -25 8 -25 23 0 55 11 14 20 28
20 32 0 10 -91 38 -127 38 -37 0 -38 -3 -22 -49 9 -24 9 -35 0 -44 -8 -8 -11
-5 -11 11 0 12 -4 22 -10 22 -5 0 -10 -4 -10 -10 0 -5 -7 -10 -15 -10 -8 0
-15 6 -15 14 0 18 -27 29 -34 13 -2 -7 -5 -4 -5 5 -2 29 -35 87 -53 94 -24 7
-23 30 3 47 17 13 19 19 10 36 -6 11 -19 25 -29 30 -12 8 -14 13 -5 19 17 11
3 28 -28 35 -28 7 -47 36 -31 46 5 3 13 22 17 41 4 19 14 46 22 59 11 17 12
26 4 34 -6 6 -11 18 -11 27 0 16 -29 50 -43 50 -4 0 -7 -11 -7 -25 0 -16 -6
-25 -15 -25 -12 0 -15 13 -15 55 0 40 4 57 15 61 8 4 15 15 15 25 0 17 8 19
63 19 35 0 68 5 74 11 7 7 20 9 30 5 15 -6 15 -8 3 -17 -10 -6 -5 -7 18 -3 21
4 32 3 32 -5 0 -7 4 -10 9 -7 5 3 14 -8 21 -25 11 -26 11 -32 -1 -39 -7 -5
-10 -13 -5 -17 5 -4 11 -2 13 5 3 6 11 12 19 12 12 0 12 -4 4 -20 -6 -12 -10
-28 -9 -38 1 -9 -3 -30 -9 -45 -7 -16 -12 -35 -12 -43 0 -8 -6 -14 -13 -14
-14 0 -12 -70 3 -105 17 -40 19 -55 9 -55 -6 0 -8 -4 -4 -9 3 -5 2 -35 -1 -66
-8 -63 -29 -84 -64 -65 -18 10 -20 8 -20 -20 0 -16 4 -30 9 -30 24 0 73 24 82
41 11 22 37 25 45 5 3 -7 22 -16 42 -20 20 -3 47 -9 60 -12 12 -4 22 -2 22 4
0 6 -15 13 -32 15 -30 4 -31 5 -10 12 12 4 22 11 22 16 0 5 9 9 19 9 11 0 26
8 33 18 7 10 21 21 31 25 9 3 17 12 17 19 0 8 14 19 30 25 17 6 30 7 30 2 0
-5 -5 -9 -12 -9 -9 0 -9 -3 0 -12 8 -8 15 -8 26 1 18 15 66 4 66 -15 0 -8 6
-14 13 -14 18 -1 50 -49 43 -66 -3 -7 -1 -14 5 -14 5 0 14 -10 19 -22 l9 -23
6 21 c6 21 8 20 43 -13 24 -22 32 -37 25 -40 -7 -2 -13 -9 -13 -14 0 -6 4 -8
9 -5 18 11 43 -32 36 -63 -8 -36 18 -81 46 -81 15 0 19 -7 19 -40 0 -25 5 -40
13 -41 6 0 2 -5 -11 -11 -31 -15 -23 -31 21 -42 20 -5 37 -13 37 -18 0 -4 9
-8 20 -8 11 0 20 -6 20 -13 0 -8 9 -22 20 -32 12 -10 19 -24 16 -31 -5 -14 19
-9 42 9 14 11 38 -5 45 -31 3 -9 3 1 2 23 -4 39 -3 40 14 19 9 -12 33 -27 54
-35 31 -11 39 -11 54 2 50 40 90 49 99 24 4 -8 11 -12 17 -8 6 4 7 1 2 -7 -4
-7 -2 -16 6 -21 22 -14 32 -10 26 10 -5 22 28 31 120 34 39 2 56 7 67 22 12
15 18 17 24 8 12 -19 72 -12 72 8 0 9 9 24 20 34 10 9 18 20 17 24 -1 3 3 6 8
6 6 0 9 -4 7 -8 -6 -18 33 -42 68 -42 29 0 36 -3 32 -15 -4 -12 -2 -12 8 -3
14 13 5 33 -16 33 -8 0 -14 8 -14 19 0 11 -9 21 -21 24 -26 7 -18 23 16 29 15
3 22 1 18 -5 -4 -7 0 -8 12 -4 14 6 16 3 12 -12 -3 -11 0 -27 7 -36 10 -13 14
-11 30 19 15 28 27 37 59 43 33 7 40 12 43 35 4 44 -26 55 -136 52 -196 -6
-325 -15 -334 -24 -6 -6 -25 -10 -43 -10 -26 0 -33 -4 -33 -19 0 -30 -21 -37
-40 -13 -21 25 -37 28 -73 14 -48 -20 -59 -13 -33 21 8 10 26 17 45 17 20 0
31 5 30 13 -4 35 6 49 56 82 32 20 60 47 66 63 6 15 15 35 20 44 5 10 9 25 9
33 0 12 7 14 28 9 38 -10 45 -27 17 -42 -22 -11 -26 -42 -5 -42 15 0 40 37 42
63 3 31 31 45 53 27 8 -7 40 -13 70 -14 47 -1 57 2 71 22 10 15 23 22 35 19
10 -3 27 2 38 10 11 7 27 13 34 11 7 -2 25 7 40 18 21 17 24 23 12 28 -22 8
-18 28 4 21 29 -9 166 24 286 69 38 14 80 26 92 26 12 0 23 4 25 9 2 6 21 12
43 15 22 2 52 9 67 15 16 6 42 8 59 4 29 -5 31 -4 24 16 -3 12 -2 21 4 21 11
0 17 4 143 120 l88 79 73 -4 c40 -2 79 0 87 5 9 5 18 4 24 -5 17 -21 97 -62
137 -69 43 -8 62 -26 53 -51 -6 -15 -3 -16 17 -10 29 10 39 10 61 0 13 -5 19
-1 23 17 8 31 -10 78 -30 78 -28 0 -22 58 8 82 18 15 19 18 5 18 -9 0 -33 9
-52 21 -37 22 -45 44 -25 80 12 24 3 59 -17 59 -10 0 -14 12 -14 41 0 33 6 47
30 69 17 15 30 35 30 43 0 11 14 18 45 23 41 6 47 4 66 -20 11 -14 27 -26 35
-26 8 0 14 -4 14 -10 0 -18 19 -10 25 10 4 13 0 31 -10 46 -14 22 -14 27 -1
46 14 20 14 22 -6 32 -33 17 -32 32 4 42 43 13 45 44 4 55 -17 5 -34 15 -39
24 -5 10 -16 14 -28 10 -40 -13 -122 47 -84 61 20 8 19 34 -1 34 -8 0 -27 14
-41 30 -13 17 -33 30 -44 30 -22 0 -24 11 -7 28 20 20 -14 47 -40 33 -11 -6
-30 -11 -41 -11 -29 0 -110 53 -108 70 1 10 -8 16 -28 18 -16 2 -37 10 -45 17
-8 7 -26 15 -40 17 -17 2 -26 10 -28 24 -3 20 -34 34 -87 38 -17 2 -53 40 -57
61 -2 15 -14 21 -46 26 -25 3 -48 13 -56 24 -12 16 -16 17 -29 6 -9 -7 -21
-10 -27 -6 -16 10 -12 32 8 40 16 6 16 7 0 16 -25 14 -91 0 -84 -17 3 -7 -2
-18 -11 -23 -14 -7 -13 -12 10 -36 14 -16 28 -44 32 -63 3 -19 11 -42 17 -52
6 -10 8 -26 4 -36 -7 -19 -5 -30 5 -27 3 1 15 -8 26 -20 117 -123 217 -207
248 -207 9 0 18 -7 21 -15 4 -8 15 -15 25 -15 10 0 19 -4 19 -9 0 -5 9 -12 20
-16 12 -4 22 -19 26 -41 4 -24 11 -33 20 -30 8 3 21 9 29 12 10 4 15 0 15 -10
0 -9 5 -16 12 -16 9 0 8 -3 -1 -12 -11 -10 -14 -10 -18 0 -3 7 -23 12 -51 12
-74 -1 -115 -48 -76 -87 8 -9 13 -22 9 -31 -3 -8 0 -21 6 -28 8 -10 8 -14 0
-14 -6 0 -11 -9 -11 -20 0 -11 -5 -20 -11 -20 -10 0 -8 -30 7 -78 4 -16 -2
-40 -20 -75 -21 -43 -35 -57 -76 -76 -31 -15 -59 -22 -77 -18 -16 3 -50 -3
-78 -14 -27 -10 -68 -19 -90 -19 -22 0 -107 -9 -190 -20 -82 -11 -175 -20
-206 -20 -31 0 -69 -4 -85 -10 -16 -5 -63 -14 -104 -20 -41 -5 -113 -15 -158
-21 -73 -11 -91 -10 -138 5 -30 10 -65 16 -78 14 -13 -1 -30 3 -39 10 -12 10
-18 10 -30 -2 -13 -13 -17 -13 -27 -1 -12 15 -12 15 -119 14 -41 0 -77 4 -80
10 -10 16 -35 17 -36 1 0 -21 -93 -30 -134 -13 -39 16 -40 33 -1 33 17 0 30
-4 30 -10 0 -5 5 -10 10 -10 6 0 9 12 8 28 l-3 27 100 5 c55 3 103 2 106 -2 3
-5 19 -4 35 1 16 5 41 12 56 15 15 3 29 15 33 25 9 30 72 37 231 26 75 -5 93
-3 104 9 7 9 19 16 26 16 8 0 19 10 24 23 14 33 35 57 51 57 25 0 61 31 55 47
-4 11 -2 13 9 9 8 -3 15 -1 15 5 0 6 5 7 11 3 18 -11 59 45 59 80 0 33 7 36
103 36 30 0 37 3 37 19 0 24 28 41 69 41 16 0 33 5 36 11 4 5 17 14 29 19 15
5 22 17 24 41 2 24 13 42 37 64 41 36 85 94 85 112 0 18 -25 16 -40 -2 -8 -10
-31 -15 -71 -15 -33 0 -59 -4 -59 -10 0 -5 -17 -10 -37 -10 -21 -1 -56 -4 -79
-9 -22 -4 -50 -4 -62 0 -17 6 -34 1 -69 -21 -26 -17 -53 -28 -60 -26 -7 3 -15
1 -18 -4 -9 -14 -67 -40 -76 -34 -5 3 -25 -4 -45 -17 -26 -16 -38 -19 -47 -10
-15 15 -40 14 -55 -1 -14 -14 -43 -19 -106 -20 -28 0 -52 9 -83 31 -24 17 -48
31 -53 31 -6 0 -10 6 -10 13 0 7 -16 12 -45 13 -25 1 -51 7 -58 13 -8 6 -25
11 -38 10 -13 0 -45 3 -71 7 -31 4 -53 3 -62 -5 -15 -12 -46 -5 -46 11 0 5
-10 6 -22 2 -58 -18 -235 11 -253 43 -5 9 -21 28 -34 42 -54 56 -27 200 50
271 18 16 57 37 86 46 29 9 50 20 47 25 -2 5 2 19 11 32 18 29 12 50 -21 72
-26 17 -32 40 -11 48 9 4 9 8 1 14 -7 4 -13 17 -15 28 -5 25 -34 32 -43 10z
m40 -132 c-11 -11 -17 4 -9 23 7 18 8 18 11 1 2 -10 1 -21 -2 -24z m-1146
-733 c0 -5 -6 -10 -14 -10 -8 0 -18 5 -21 10 -3 6 3 10 14 10 12 0 21 -4 21
-10z m230 -74 c0 -9 -30 -14 -35 -6 -4 6 3 10 14 10 12 0 21 -2 21 -4z m-50
-115 c0 -6 -4 -13 -10 -16 -5 -3 -10 1 -10 9 0 9 5 16 10 16 6 0 10 -4 10 -9z
m85 -51 c-8 -13 -35 -13 -55 0 -11 7 -5 10 23 10 23 0 36 -4 32 -10z m-7 -67
c-10 -2 -28 -2 -40 0 -13 2 -5 4 17 4 22 1 32 -1 23 -4z m133 -3 c5 0 9 -7 9
-16 0 -11 6 -15 20 -11 20 5 26 -3 13 -16 -7 -7 -47 16 -73 42 -13 13 -13 14
3 8 10 -4 23 -7 28 -7z m3006 -212 c-3 -8 -6 -5 -6 6 -1 11 2 17 5 13 3 -3 4
-12 1 -19z m744 -63 c-16 -38 -20 -44 -21 -24 0 14 7 34 15 45 8 10 15 28 16
39 1 13 3 15 5 5 2 -8 -5 -37 -15 -65z m-1583 1 l-3 -54 -36 2 c-19 0 -46 8
-59 17 -22 14 -22 17 -9 47 16 36 33 41 48 15 8 -14 10 -14 11 -3 0 11 3 11
12 2 18 -18 28 -15 28 8 0 11 2 20 5 20 3 0 5 -24 3 -54z m-154 21 c8 -7 11
-26 8 -45 -2 -17 1 -46 7 -63 14 -41 4 -53 -57 -69 -26 -7 -61 -17 -78 -23
-22 -7 -41 -7 -63 1 -17 6 -31 8 -31 4 0 -11 -42 -35 -65 -38 -11 -1 -57 -7
-101 -13 -45 -5 -97 -8 -116 -5 -24 4 -38 1 -47 -10 -9 -10 -18 -13 -25 -7
-10 8 -31 12 -122 25 -17 2 -47 11 -67 21 -28 13 -36 23 -39 50 -5 44 -1 54
31 67 44 18 120 26 114 12 -6 -15 13 -28 22 -14 11 18 40 11 50 -12 11 -26 55
-38 55 -15 0 31 71 71 139 79 37 4 78 10 94 14 17 3 27 1 27 -6 0 -6 5 -16 10
-23 6 -7 17 -21 25 -32 14 -19 14 -18 15 13 0 20 5 32 14 32 7 0 16 10 19 22
4 12 9 19 13 16 3 -4 23 -1 43 7 70 27 107 30 125 12z m246 -42 c0 -8 -2 -15
-4 -15 -2 0 -12 -3 -21 -7 -15 -5 -16 -3 -6 15 13 25 31 29 31 7z m-85 -55 c8
-13 -42 -43 -61 -36 -14 5 -13 9 7 26 26 21 45 25 54 10z m1455 -553 c-5 -29
-11 -123 -12 -210 -2 -116 -6 -160 -16 -166 -9 -5 -11 -20 -7 -47 12 -78 -89
-556 -127 -602 -6 -7 -11 -43 -10 -78 0 -52 -5 -76 -24 -111 -13 -25 -24 -52
-24 -58 0 -7 -6 -17 -13 -23 -7 -6 -26 -54 -42 -106 -19 -61 -32 -90 -36 -79
-9 27 -39 -44 -37 -89 2 -45 -31 -93 -42 -62 -6 17 -8 16 -26 -4 -10 -12 -26
-22 -36 -22 -11 0 -18 -7 -18 -19 0 -10 -7 -21 -15 -25 -8 -3 -15 -12 -15 -19
0 -7 -11 -20 -25 -27 -14 -7 -25 -19 -25 -27 0 -7 -4 -13 -8 -13 -19 0 -104
-64 -116 -89 -11 -20 -22 -26 -47 -26 -26 0 -34 -5 -38 -23 -4 -13 -10 -23
-14 -22 -4 0 -26 -19 -48 -43 -29 -34 -49 -46 -79 -51 -25 -4 -38 -11 -35 -19
8 -21 -30 -59 -61 -60 -16 -1 -32 -5 -35 -9 -3 -5 -24 1 -47 12 -22 11 -50 20
-62 20 -11 0 -29 9 -40 20 -11 11 -28 20 -39 20 -10 0 -24 7 -32 16 -10 13
-10 17 2 25 8 5 20 6 28 4 18 -7 81 13 81 26 0 12 -73 12 -86 -1 -11 -11 -84
8 -84 22 0 4 -13 8 -29 8 -17 0 -32 4 -35 8 -5 9 29 42 43 42 24 0 43 34 36
67 -7 37 -3 40 19 18 9 -9 17 -11 21 -5 3 5 1 10 -4 10 -35 0 39 79 74 80 15
0 17 2 6 9 -8 5 -12 18 -9 29 4 14 2 19 -7 15 -31 -11 -80 46 -54 63 5 3 9 13
9 24 0 25 27 33 40 12 10 -15 11 -15 6 0 -4 14 0 15 25 8 35 -10 48 5 25 28
-12 13 -18 13 -28 4 -7 -7 -19 -12 -28 -11 -10 0 -11 2 -2 6 6 2 12 16 12 29
0 20 -5 24 -30 24 -28 0 -30 2 -30 40 0 29 4 40 15 40 8 0 15 7 15 15 0 9 7
18 15 21 10 4 15 20 15 50 0 24 4 44 10 44 5 0 12 11 16 25 4 15 22 34 44 46
21 12 41 30 43 40 3 10 18 26 34 36 16 9 40 32 52 50 12 19 37 41 55 48 38 16
73 61 53 68 -15 7 11 27 33 26 8 -1 25 -1 37 0 20 1 21 3 11 26 -10 22 -9 28
8 39 10 8 30 23 43 35 13 12 28 21 33 21 4 0 8 7 8 15 0 8 4 15 9 15 5 0 18
17 28 38 11 20 29 42 41 48 30 15 58 49 84 101 13 26 28 43 39 43 10 0 31 16
47 36 28 33 35 45 61 104 6 14 22 43 35 65 14 22 43 76 65 120 63 124 101 190
112 193 5 2 20 25 33 50 13 26 47 92 76 147 29 55 60 114 69 131 16 29 16 26
19 -99 1 -71 -2 -152 -8 -180z m-2470 283 c0 -11 -7 -20 -15 -20 -13 0 -14 4
-5 20 6 11 13 20 15 20 3 0 5 -9 5 -20z m-1040 -176 c0 -10 -6 -14 -15 -11 -8
4 -17 2 -20 -2 -2 -5 -16 -11 -30 -13 -37 -8 -31 16 8 29 47 15 57 15 57 -3z
m705 0 c8 3 15 1 15 -4 0 -12 -7 -12 -50 -4 -21 5 -27 9 -19 15 7 4 19 3 26
-3 7 -5 20 -8 28 -4z m255 -99 c0 -8 -3 -15 -7 -15 -5 0 -18 -3 -30 -6 -17 -5
-23 -2 -23 11 0 12 6 16 20 12 11 -3 20 -1 20 4 0 5 5 9 10 9 6 0 10 -7 10
-15z m-960 -55 c0 -5 -7 -10 -16 -10 -8 0 -12 5 -9 10 3 6 10 10 16 10 5 0 9
-4 9 -10z m401 -363 c-6 -15 -8 -6 -8 29 0 41 1 44 8 21 4 -16 4 -38 0 -50z
m47 61 c-6 -18 -28 -21 -28 -4 0 9 7 16 16 16 9 0 14 -5 12 -12z m-68 -44 c0
-8 -4 -12 -10 -9 -5 3 -10 10 -10 16 0 5 5 9 10 9 6 0 10 -7 10 -16z m153 -66
c7 -4 -1 -7 -18 -7 -16 0 -24 3 -17 6 6 2 9 9 6 14 -3 6 -2 22 2 37 8 27 8 27
12 -8 2 -19 9 -38 15 -42z m2367 23 c0 -5 -3 -17 -6 -26 -5 -12 -9 -14 -14 -4
-5 7 -6 18 -3 26 6 15 23 18 23 4z m-2353 -77 c-3 -3 -12 -4 -19 -1 -8 3 -5 6
6 6 11 1 17 -2 13 -5z m2223 -48 c0 -2 -7 -9 -15 -16 -12 -10 -15 -10 -15 4 0
9 7 16 15 16 8 0 15 -2 15 -4z m-1890 -126 c0 -5 -5 -10 -11 -10 -5 0 -7 5 -4
10 3 6 8 10 11 10 2 0 4 -4 4 -10z m96 -137 c-4 -4 -11 -1 -16 7 -16 25 -11
35 7 17 9 -9 13 -20 9 -24z m44 -24 c0 -18 -18 -9 -23 12 -4 16 -3 18 9 8 8
-6 14 -15 14 -20z m157 -31 c-3 -8 -6 -5 -6 6 -1 11 2 17 5 13 3 -3 4 -12 1
-19z m47 6 c23 -9 20 -24 -4 -24 -11 0 -20 7 -20 15 0 17 2 18 24 9z m-147
-56 c-3 -8 -6 -5 -6 6 -1 11 2 17 5 13 3 -3 4 -12 1 -19z m193 -2 c0 -2 -9 -6
-20 -9 -11 -3 -18 -1 -14 4 5 9 34 13 34 5z m970 -532 c0 -8 -5 -12 -10 -9 -6
4 -8 11 -5 16 9 14 15 11 15 -7z m-30 -3 c0 -5 -7 -11 -15 -15 -15 -5 -20 5
-8 17 9 10 23 9 23 -2z m994 -65 c-3 -9 -10 -16 -15 -16 -5 0 -4 9 3 20 14 22
21 20 12 -4z m-191 -271 c-3 -9 -8 -14 -10 -11 -3 3 -2 9 2 15 9 16 15 13 8
-4z m-933 -186 c0 -14 -5 -19 -17 -17 -23 4 -28 25 -6 31 10 3 19 5 21 6 1 0
2 -8 2 -20z m-80 -29 c0 -5 -9 -10 -20 -10 -11 0 -20 5 -20 10 0 6 9 10 20 10
11 0 20 -4 20 -10z m236 -107 c-10 -10 -19 5 -10 18 6 11 8 11 12 0 2 -7 1
-15 -2 -18z m104 -3 c0 -5 -4 -10 -10 -10 -5 0 -10 5 -10 10 0 6 5 10 10 10 6
0 10 -4 10 -10z m-100 -130 c0 -5 -6 -10 -14 -10 -8 0 -18 5 -21 10 -3 6 3 10
14 10 12 0 21 -4 21 -10z m-380 -494 c0 -8 -7 -16 -15 -20 -17 -6 -18 -4 -9
18 8 20 24 21 24 2z m335 -16 c3 -5 -3 -10 -14 -10 -12 0 -21 5 -21 10 0 6 6
10 14 10 8 0 18 -4 21 -10z m91 -31 c-6 -40 -6 -41 19 -37 26 5 45 -9 29 -21
-14 -10 -34 -49 -34 -66 0 -10 -10 -15 -27 -15 -22 0 -25 -2 -13 -10 13 -9 13
-12 -4 -25 -11 -8 -16 -21 -13 -30 4 -9 1 -15 -8 -15 -17 0 -20 -16 -5 -25 6
-3 10 -15 10 -27 0 -11 8 -22 20 -25 11 -3 20 -14 20 -25 0 -11 -9 -22 -20
-25 -21 -6 -28 -33 -9 -33 8 0 8 -4 0 -13 -6 -7 -9 -28 -7 -45 4 -27 1 -32
-28 -42 -17 -5 -47 -26 -66 -46 -30 -32 -37 -35 -71 -30 -21 3 -49 2 -63 -4
-21 -7 -26 -6 -26 5 0 20 -16 19 -24 -1 -4 -9 0 -24 9 -34 20 -22 19 -30 -3
-30 -23 0 -47 -26 -55 -58 -5 -21 -3 -23 24 -17 l30 7 -25 -27 c-19 -20 -24
-37 -24 -78 -1 -28 -6 -53 -11 -55 -6 -2 -11 -28 -11 -58 0 -54 1 -55 28 -52
21 2 28 -2 30 -19 3 -19 -1 -23 -22 -23 -15 0 -34 -5 -44 -11 -18 -11 -18 -13
-1 -47 10 -19 16 -38 14 -42 -3 -5 1 -10 9 -13 16 -6 10 -47 -6 -47 -5 0 -34
25 -64 55 -33 33 -49 55 -39 55 22 0 19 17 -5 23 -11 3 -18 1 -14 -4 3 -5 -1
-9 -8 -9 -7 0 -34 26 -60 58 -25 31 -65 77 -88 102 -23 25 -52 61 -65 80 -12
19 -63 76 -112 125 -61 61 -111 125 -158 200 -61 98 -174 246 -273 359 -19 22
-30 41 -24 45 5 3 12 13 15 21 2 8 3 3 1 -12 -2 -15 3 -32 13 -40 14 -11 15
-10 8 11 -5 16 -4 21 4 17 6 -4 11 -18 11 -32 0 -14 6 -32 14 -40 19 -18 30
-18 22 1 -6 18 2 45 15 45 17 0 89 -80 89 -100 0 -11 5 -20 11 -20 7 0 8 11 4
30 -5 22 -3 30 7 30 18 0 38 -20 38 -38 0 -21 63 -121 77 -122 6 0 13 6 16 13
2 7 14 0 31 -20 28 -33 66 -44 66 -20 1 13 60 -52 60 -66 0 -5 -14 -7 -32 -5
-28 5 -29 4 -13 -9 22 -15 65 -18 65 -3 0 15 60 12 62 -2 0 -7 2 -17 3 -23 2
-5 3 -14 4 -19 1 -11 61 63 61 75 0 5 -1 12 -2 15 -2 4 8 11 22 16 16 6 26 5
28 -1 2 -6 13 -11 23 -11 19 0 18 3 -7 35 -14 19 -29 33 -33 31 -4 -3 -13 -1
-21 5 -10 5 -11 9 -3 9 8 0 6 13 -7 42 -23 52 -16 62 15 26 13 -16 29 -28 35
-28 17 0 11 39 -8 51 -12 8 -17 20 -14 35 3 19 7 21 26 13 12 -6 31 -26 41
-45 17 -31 20 -33 34 -20 13 14 13 18 -4 36 -10 11 -24 20 -31 20 -7 0 -15 14
-19 31 -4 18 -16 34 -30 39 -12 5 -25 16 -29 25 -8 21 3 42 14 25 5 -7 13 -3
24 15 14 21 20 24 36 15 21 -11 28 -40 9 -40 -5 0 -7 -5 -3 -11 4 -7 21 -9 47
-5 25 4 43 3 47 -4 5 -8 12 -7 23 4 23 24 73 21 80 -5 5 -18 8 -19 29 -8 13 7
33 12 46 10 12 -1 22 2 22 8 0 6 -18 11 -40 11 -40 0 -40 0 -40 38 0 48 4 52
40 39 22 -8 30 -18 32 -41 3 -28 28 -51 28 -26 0 6 7 18 15 26 13 14 18 12 39
-10 26 -29 46 -34 46 -11 0 11 7 14 24 9 29 -7 66 11 66 33 0 13 26 42 39 43
2 0 1 -19 -3 -41z m-636 16 c-7 -9 -15 -13 -17 -11 -7 7 7 26 19 26 6 0 6 -6
-2 -15z m827 -11 c-3 -3 -12 -4 -19 -1 -8 3 -5 6 6 6 11 1 17 -2 13 -5z m-637
-54 c0 -5 -4 -10 -10 -10 -5 0 -10 5 -10 10 0 6 5 10 10 10 6 0 10 -4 10 -10z
m518 -107 c-21 -25 -28 -61 -18 -88 7 -17 4 -27 -9 -39 -33 -30 -44 -20 -37
32 4 26 8 56 9 67 2 28 18 44 46 45 22 0 23 -1 9 -17z m-31 -205 c-2 -21 -10
-34 -20 -36 -28 -6 -32 26 -7 48 30 26 32 26 27 -12z m-227 -262 c0 -3 -4 -8
-10 -11 -5 -3 -10 -1 -10 4 0 6 5 11 10 11 6 0 10 -2 10 -4z m-60 -30 c0 -17
-38 -28 -46 -14 -7 11 13 28 34 28 6 0 12 -6 12 -14z m-66 -575 c-3 -3 -14 5
-26 16 -14 14 -18 27 -14 40 7 15 10 13 26 -17 10 -19 16 -37 14 -39z"/>
<path d="M6527 3814 c-3 -3 -3 -12 0 -20 4 -10 -3 -14 -21 -14 -14 0 -26 -4
-26 -10 0 -5 -8 -10 -17 -10 -14 0 -13 -3 6 -16 21 -15 25 -15 57 2 26 14 34
25 34 46 0 26 -17 37 -33 22z"/>
<path d="M6000 2984 c0 -8 5 -12 10 -9 6 4 8 11 5 16 -9 14 -15 11 -15 -7z"/>
<path d="M5840 2576 c0 -9 5 -16 10 -16 6 0 10 4 10 9 0 6 -4 13 -10 16 -5 3
-10 -1 -10 -9z"/>
<path d="M5640 2531 c0 -36 13 -47 31 -25 9 11 10 20 3 32 -18 28 -34 25 -34
-7z"/>
<path d="M5920 2549 c0 -5 5 -7 10 -4 6 3 10 8 10 11 0 2 -4 4 -10 4 -5 0 -10
-5 -10 -11z"/>
<path d="M6035 2550 c3 -5 8 -10 11 -10 2 0 4 5 4 10 0 6 -5 10 -11 10 -5 0
-7 -4 -4 -10z"/>
<path d="M5956 2531 c-3 -4 1 -17 9 -27 14 -18 14 -18 15 9 0 26 -13 36 -24
18z"/>
<path d="M5892 2505 c0 -16 2 -22 5 -12 2 9 2 23 0 30 -3 6 -5 -1 -5 -18z"/>
<path d="M5905 2460 c-4 -14 -1 -28 11 -41 35 -39 45 -18 15 32 -18 30 -19 30
-26 9z"/>
<path d="M5395 2440 c3 -5 8 -10 11 -10 2 0 4 5 4 10 0 6 -5 10 -11 10 -5 0
-7 -4 -4 -10z"/>
<path d="M5826 2435 c-9 -24 -7 -55 3 -55 15 0 23 38 13 56 -8 15 -10 15 -16
-1z"/>
<path d="M5738 2403 c-20 -5 -22 -12 -9 -32 5 -7 13 -11 19 -7 11 7 23 47 14
45 -4 -1 -15 -3 -24 -6z"/>
<path d="M5645 2389 c-31 -9 -93 -64 -83 -74 6 -6 111 62 116 76 2 5 2 9 0 8
-1 0 -17 -5 -33 -10z"/>
<path d="M5780 2342 c-14 -5 -30 -21 -30 -32 0 -12 53 -9 71 3 18 13 18 14 -4
24 -12 5 -29 8 -37 5z"/>
<path d="M2501 7852 c-1 -13 10 -39 23 -59 23 -33 26 -70 5 -57 -5 3 -9 -2 -9
-10 0 -9 4 -16 9 -16 5 0 12 -11 15 -25 8 -33 36 -65 56 -65 29 0 40 23 39 85
0 33 -3 54 -6 47 -4 -10 -10 -8 -26 7 -12 11 -35 33 -52 49 -16 15 -35 37 -42
47 -11 19 -12 19 -12 -3z"/>
<path d="M1070 7500 c0 -5 5 -10 10 -10 6 0 10 5 10 10 0 6 -4 10 -10 10 -5 0
-10 -4 -10 -10z"/>
<path d="M6720 7480 c0 -5 9 -10 20 -10 11 0 20 5 20 10 0 6 -9 10 -20 10 -11
0 -20 -4 -20 -10z"/>
<path d="M7142 7329 c2 -6 8 -10 13 -10 5 0 11 4 13 10 2 6 -4 11 -13 11 -9 0
-15 -5 -13 -11z"/>
<path d="M3406 7258 c-15 -42 -15 -49 0 -55 22 -8 26 1 16 38 -7 26 -11 30
-16 17z"/>
<path d="M7765 7241 c-3 -5 -1 -12 5 -16 5 -3 10 1 10 9 0 18 -6 21 -15 7z"/>
<path d="M3170 7188 c0 -7 4 -19 9 -27 11 -17 23 1 15 23 -7 19 -24 21 -24 4z"/>
<path d="M5230 6710 c0 -5 5 -10 10 -10 6 0 10 5 10 10 0 6 -4 10 -10 10 -5 0
-10 -4 -10 -10z"/>
<path d="M7668 6674 c-5 -4 -8 -19 -8 -33 1 -23 2 -24 11 -8 11 19 9 53 -3 41z"/>
<path d="M7636 6601 c-4 -7 -5 -15 -2 -18 9 -9 19 4 14 18 -4 11 -6 11 -12 0z"/>
<path d="M4306 5671 c-4 -7 -5 -15 -2 -18 9 -9 19 4 14 18 -4 11 -6 11 -12 0z"/>
<path d="M5330 5597 c0 -8 7 -20 15 -27 12 -10 15 -10 15 3 0 8 -7 20 -15 27
-12 10 -15 10 -15 -3z"/>
<path d="M4740 5506 c0 -8 5 -18 10 -21 6 -3 10 3 10 14 0 12 -4 21 -10 21 -5
0 -10 -6 -10 -14z"/>
<path d="M6800 5510 c0 -5 4 -10 9 -10 6 0 13 5 16 10 3 6 -1 10 -9 10 -9 0
-16 -4 -16 -10z"/>
<path d="M4800 5471 c0 -25 6 -27 13 -6 4 8 2 17 -3 20 -6 4 -10 -3 -10 -14z"/>
<path d="M6540 5365 c-6 -8 -10 -22 -8 -31 3 -17 4 -17 21 0 18 18 23 46 8 46
-5 0 -14 -7 -21 -15z"/>
<path d="M4740 5291 c0 -5 5 -13 10 -16 6 -3 10 -2 10 4 0 5 -4 13 -10 16 -5
3 -10 2 -10 -4z"/>
<path d="M6430 5170 c0 -5 5 -10 10 -10 6 0 10 5 10 10 0 6 -4 10 -10 10 -5 0
-10 -4 -10 -10z"/>
</g>
</svg>
